<?xml version="1.0" encoding="UTF-8"?> <svg xmlns="http://www.w3.org/2000/svg" xmlns:xlink="http://www.w3.org/1999/xlink" width="218.2" height="196.18" viewBox="0 0 218.2 196.18"> <defs> <clipPath id="clip-path"> <rect id="Rechteck_14" data-name="Rechteck 14" width="218.2" height="196.18" fill="none"></rect> </clipPath> </defs> <g id="Logo_2020_" data-name="Logo (2020)" transform="translate(109.1 98.09)"> <g id="Logo_2020_2" data-name="Logo (2020)" transform="translate(-109.1 -98.09)"> <rect id="Rechteck_11" data-name="Rechteck 11" width="218.2" height="196.18" fill="#366"></rect> <rect id="Rechteck_12" data-name="Rechteck 12" width="71.7" height="4.82" transform="translate(118.9 54.7)" fill="#fff"></rect> <g id="Gruppe_7" data-name="Gruppe 7" clip-path="url(#clip-path)"> <path id="Pfad_12" data-name="Pfad 12" d="M190.3,129.8v-3.5a11.6,11.6,0,0,0-11.8-11.2c-8.1,0-12.1,6-12.1,13.5s1.6,10.2,7.7,12.7l5.1,2.1c3.5,1.4,4.1,2.2,4.1,7.5s-.3,7.3-5.1,7.3-5-2.5-5-5.1V151h-7.1v2.6c0,6.6,5.2,11.7,12.1,11.7,9.1,0,12.2-6.2,12.2-14.5s-1.2-11.2-7.4-13.5l-5.4-2.1c-3.7-1.5-4-2.8-4-6.6s.9-6.4,4.8-6.4,5,2.7,5,6v1.6Z" fill="#fff"></path> <path id="Pfad_13" data-name="Pfad 13" d="M129.6,115.6H119.3v49.3h9.6c9.1,0,13.2-4.8,13.2-13.4v-2.8c0-5.1-1.5-8.1-4.8-9.7,3.1-1.9,4.8-3.9,4.8-9.1v-1.8c0-6.4-3.4-12.5-12.5-12.5m-.2,42.3h-3V142.1h3.1c5.1,0,6,2.6,6,7.5s-.4,8.3-6.1,8.3m.1-22h-3.2V122.3h2.9c4.6,0,6.2,2.3,6.2,6.7s-1.2,6.9-6,6.9" fill="#fff"></path> <path id="Pfad_14" data-name="Pfad 14" d="M80.2,115.6l-11,49.3h7.1l2.1-10.6H88l2,10.6h7.1l-11-49.3Zm-.6,32.1L83,129.8h.1l3.5,17.9Z" fill="#fff"></path> <path id="Pfad_15" data-name="Pfad 15" d="M35.1,115.6H28v49.3H49.1v-7h-14Z" fill="#fff"></path> <path id="Pfad_16" data-name="Pfad 16" d="M79.6,81.8h7.1V39.1h8.2V32.5H71.5v6.6h8.1Z" fill="#fff"></path> <rect id="Rechteck_13" data-name="Rechteck 13" width="7.1" height="49.32" transform="translate(28.2 32.5)" fill="#fff"></rect> </g> </g> </g> </svg> 